<?xml version="1.0" encoding="utf-8"?>
<!-- Generator: Adobe Illustrator 22.1.0, SVG Export Plug-In . SVG Version: 6.00 Build 0)  -->
<svg version="1.1" id="daemon-skull" xmlns="http://www.w3.org/2000/svg" xmlns:xlink="http://www.w3.org/1999/xlink" x="0px"
	 y="0px" viewBox="0 0 512 512" style="enable-background:new 0 0 512 512;" xml:space="preserve">
<style type="text/css">
	.st0{fill:#FF0000;}
</style>
<path class="st0" d="M142,16.9c-47.8,22-79.3,57.4-79.3,97c0,26.1,13.4,50.3,36.2,70c-11.7,25.4-19,53.9-20.8,84.2
	c17.2,0.6,33.5,4.2,48.2,11.7c41.6,21.3,61.1,66.9,57.8,121.1c7.6,1.8,15.3,3.4,23.1,4.6c0.9-16.8,0.8-33.5-0.5-50.1l18.6-1.5
	c1.4,18,1.5,36,0.5,53.9c8,0.8,16.1,1.2,24.3,1.4V353h18.7v56.1c7.8-0.3,15.7-0.8,23.6-1.5c-1-17.8-1-35.7,0.5-53.7l18.6,1.5
	c-1.3,16.6-1.4,33.2-0.5,50c7.3-1.1,14.6-2.4,21.9-3.8c-3.5-54.4,16-100.3,57.7-121.7c14.7-7.5,31-11.1,48.2-11.7
	c-1.8-30.7-9.3-59.6-21.3-85.3c22.1-19.6,35-43.3,35-69c0-39.7-31.5-75-79.3-97c13.1,16.6,21.1,36.4,21.1,57.4
	c0,42.7-31.5,79.6-77,97.1l-6.1-14.3c11.1-4.4,21.2-10.2,29.9-17c10.1-7.9,18.2-17.1,23.9-27.2c-29.9-25.3-66.6-40.3-106.5-40.3
	c-40.3,0-77.6,15.3-107.6,41.2c5.7,9.7,13.6,18.6,23.4,26.2c9.7,7.6,21.1,13.9,33.9,18.5l-6.1,14.3c-47.7-16.9-81.1-54.7-81.1-98.6
	C120.9,53.3,129,33.5,142,16.9L142,16.9z M152.3,200c0.1,0,0.1,0,0.1,0c18.4,23.4,51.9,39.7,91.1,43.2c-5.9,19.7-27,34.5-52.7,34.5
	c-30.2,0-55.1-20.6-55.1-45.5c0-12.5,6.2-24,16.1-32.2C151.9,200.2,152.1,200,152.3,200L152.3,200z M364,200c0.1,0,0.1,0,0.1,0
	c9.9,8.2,16.1,19.7,16.1,32.2c0,24.9-24.9,45.5-55.1,45.5c-25.7,0-46.8-14.8-52.7-34.5c39.2-3.5,72.7-19.8,91.1-43.2
	C363.6,200.1,363.8,200,364,200L364,200z M258.4,244.2c5.6,27.4,13.9,54.8,32.9,82.3c-20.3,5.4-44.8,5.6-65.8,0
	C243.5,299,252.3,271.6,258.4,244.2L258.4,244.2z M182.1,419.7c-2.3,15.4-6.4,31.3-12.3,47.4c8.8,5.7,18,10.6,27.7,14.6
	c3.6-19.2,6.5-38.4,8.3-57.5C197.8,423,189.9,421.5,182.1,419.7L182.1,419.7z M334.9,420.2c-7.5,1.5-15,2.8-22.5,3.9
	c1.8,19,4.7,38,8.2,57.1c9.2-3.9,18-8.6,26.5-14.1C341.3,451.2,337.2,435.4,334.9,420.2L334.9,420.2z M293.8,426.3
	c-8.3,0.8-16.7,1.3-25,1.6v65.7c11.6-0.8,23-2.8,34-6C298.9,467.2,295.7,446.8,293.8,426.3L293.8,426.3z M224.4,426.5
	c-2,20.5-5.1,41-9,61.4c11.2,3.2,22.9,5.1,34.8,5.8V428C241.5,427.8,232.9,427.3,224.4,426.5L224.4,426.5z"/>
</svg>
