<?xml version="1.0" encoding="utf-8"?>
<!-- Generator: Adobe Illustrator 22.1.0, SVG Export Plug-In . SVG Version: 6.00 Build 0)  -->
<svg version="1.1" xmlns="http://www.w3.org/2000/svg" xmlns:xlink="http://www.w3.org/1999/xlink" x="0px" y="0px"
	 viewBox="0 0 436 213.8" style="enable-background:new 0 0 436 213.8;" xml:space="preserve">
<style type="text/css">
	.st0{display:none;}
	.st1{display:inline;fill:#262626;}
	.st2{fill:#FFD400;}
	.st3{fill:#FFB400;}
	.st4{display:inline;fill:none;stroke:#19DF00;stroke-miterlimit:10;}
</style>
<g id="Background" class="st0">
	<rect class="st1" width="436" height="213.8"/>
</g>
<g id="Model">
	<path id="Black" d="M435.9,14.4C424.2,20.5,413,27,403,36.1c-13.1,11.9-29.8,16.4-47.3,14.1c-41.9-5.6-77,9.9-109,34.4
		c-13.7,10.5-25.9,23.1-40.3,36.2c7.3,2,12.7,3.4,18.1,4.8c2.1,0.5,4.3,0.8,6.4,1.4c14.6,4.5,28.9,6.8,42.8-3
		c2.8-1.9,7.1-1.6,10.7-2.3c0.4,0.6,0.7,1.1,1.1,1.7c-2.8,4.7-5.5,9.5-8.9,15.2c3.8,0.5,6.2,0.8,8.1,1c-4.1,9-8.1,17.8-12.3,27
		c-1.5-0.7-3.2-1.1-4.4-2.1c-19.8-16.6-44.8-21-68.3-28.9c-7.9-2.7-15-0.7-22.9,2.2c-13,4.7-27,6.9-40.7,9.3
		c-8.7,1.5-17.7,1.4-26.6,2.1c-1.4,0.1-2.8,0.6-4,1.4C87.7,161.7,70,173.1,52,184c-5.7,3.5-7.7,7.4-4.8,13.7c1,2.1,1.1,4.6,1.3,5.6
		c-6.2,3.8-11.5,7.2-17,10.1c-1.3,0.7-4.8,0.2-5.2-0.8c-2.2-4.3-5.4-3-8.7-2.7c-5.8,0.6-11.8,3-17.6-2.4c1.6-1.3,2.7-2.9,4.1-3.3
		c10.9-3.1,14.7-11.9,17-21.6c1.1-4.8,3.6-7.4,7.8-9.5c15.4-7.5,30.6-15.2,45.9-23.7c-20.8-3.4-41.2-7.3-59.9-18.7
		c5.5-10.9,17.7-7.9,26.2-13.4c-9-8.7-23.3-10-30.7-23.8c7.1,0,12.7-0.6,18.1,0.1c24.3,3.4,46.6-2.5,67.4-14.7
		c1.6-0.9,3.1-2.1,4.9-3.4c-0.7-1.3-1.3-2.3-1.7-3.4c-0.8-2.1-1.5-4.3-2.2-6.4c2.4-0.7,4.8-2.1,7.1-1.9c6.2,0.5,12,0.7,13.8-6.9
		c0.6-2.6,0.7-6.2-0.6-8.4c-2.7-4.4-3-7.6,0.8-11.6c1.7-1.8,2-5.3,2.3-8c0.3-2.9-0.4-5.8-0.2-8.7c0.4-8.8,3.8-10.6,11.3-5.7
		c1.6-3.5,2.8-7.2,5-10.2c1.5-2.1,4.4-4.2,6.7-4.3c1.7,0,3.7,3.1,5.1,5.1c4.1,6.2,7.3,13.1,12,18.7c6.6,7.8,15.6,10.4,26,9.9
		c22.4-1.2,45-0.7,67.4-2.4c12.1-0.9,24.2-4.2,36.1-7.2c27.9-6.9,55.6-14.4,83.6-21.1c7.8-1.9,15.6-0.6,23.3,2.8
		c4.5,2,10.3,1.3,15.5,1.4c8,0,16.4-3.2,23.9,2.4C435.9,11.5,435.9,12.9,435.9,14.4z"/>
	<g id="Yellow">
		<path class="st2" d="M399.1,18.4c-1.3-3-5.3-5.6-8.7-6.8c-3.4-1.2-7.7-1.1-11.4-0.4c-13.3,2.5-26.4,5.9-39.7,8.2
			c-39.6,6.9-76.3,27.4-117.9,25.3c2.5,14.3,2.2,28.1-6.6,38.9c-19.6,24-42.3,33.6-70,19.8c-13.3-6.6-25.8-15-39.3-23
			c-17.8,15.2-63.5,20.2-74,21.5c-0.7,0.1-0.8,1-0.2,1.3c5.3,2.6,12.2,6.3,17.2,8c5.3,1.9,6.9,5.3,2.8,9.2c-2.1,2.1-5.4,3.1-8.2,4.3
			c-2.7,1.2-8.8,3.3-11.9,4.6c-0.8,0.3-0.7,1.4,0.1,1.7c5,1.7,11.4,4.5,16,5c19.2,2.1,38.5,4.4,57.8,5c44.7,1.4,85.1-8.8,116.8-43.8
			c11.8-13,25.1-25.6,40-34.4C287.2,48,314.8,38,345.4,41.2c8.2,0.8,16.7,2,24.6,0.6c8.8-1.5,17.2-5.5,25.6-8.9
			C403.1,29.9,401.3,23.4,399.1,18.4z M380.3,23.1c-2.3,0-4.2-1.9-4.2-4.2c0-2.3,1.9-4.2,4.2-4.2c2.3,0,4.2,1.9,4.2,4.2
			C384.5,21.2,382.6,23.1,380.3,23.1z"/>
		<path class="st2" d="M174.7,104.1c-0.2-1.8-0.4-3.7-0.6-5.5c-8.2-0.2-17.7,8.6-24.4-3.5c-7.3-1.4-15.3-2.9-23.3-4.5
			c0-0.9,0.1-1.8,0.1-2.7c1.4-0.7,2.9-1.3,4.7-2.2c-4.9-7.9-17.3-1.2-21.3-11.3c8.2-1.4,16.1-2.3,23.7-4.1
			c18.4-4.3,34.8-12.9,49.5-24.7c5.4-4.3,20.4-5.7,25.1-2.3c9.2,6.5,12,14.6,8.9,25.3C212,86.4,194.7,100.9,174.7,104.1z
			 M175.4,76.9c-0.9-2.8-2.6-5.4-2.2-7.6c0.3-1.4,3.6-2.2,6.3-3.7c0.3,3.6-0.1,5.8,0.7,7.4c2.7,4.9,5.1,9.6,5.6,15.4
			c0.3,3.5,3.5,6,7.6,1c-9.1-0.9-4.9-6.1-3.7-10.2c-9.1-6.6-8-12.7,2.8-17.9c-5.6-6.6-0.4-10.3,4.7-14.7c-7.7-0.7-9.8,3.5-10.2,9
			c-0.5,6-2.6,9.2-9.4,7.7c-4.9-1.1-6.9,2.6-7.6,6.8C169.2,74.2,170.3,77.2,175.4,76.9z M202.4,52.9c-5.7,1.3-7,5.9-6.9,10.4
			c0.1,3.5,2,7.1,8,5.6C196,63.8,200.5,58.5,202.4,52.9z M180,93.6c-7.6-5.6-7.6-5.7-3.5-14.4c-1.9,0.7-4.8,1.9-4.8,3.1
			c0,3.4,0.7,7,2.1,10C174.5,93.4,177.9,93.2,180,93.6z M164.4,74.3c-0.6-0.5-1.2-1-1.9-1.4c-1.8,1.1-4.7,2-5.1,3.5
			c-0.7,2.9-0.4,6.3,0.3,9.3c0.2,0.7,3.6,0.6,5.5,0.9C154.2,81.5,159.7,77.9,164.4,74.3z"/>
		<path class="st2" d="M177,40.1c-16.3,10.3-31.5,9.3-45.3,5.2c-1.8-6.8-3.6-13.5-5.5-20.8c9.4,3.8,11.7,2,14-10.9
			C151.8,23,158.7,38,177,40.1z"/>
		<path class="st2" d="M121.5,64.5c12.8-12.1,29.4-8.9,44.2-13.9C157,59.2,134.2,66.4,121.5,64.5z"/>
		<path class="st2" d="M418.2,16c-3,2.2-6,4.5-9.1,6.5c-1.2,0.7-3.5,1.2-4.4,0.5c-1-0.8-1.8-3.1-1.4-4.4c0.4-1.5,2-3.6,3.4-3.8
			c3.5-0.5,7.2-0.2,10.8-0.2C417.7,15.1,418,15.5,418.2,16z"/>
	</g>
	<g id="Orange">
		<path class="st3" d="M43,177.9c-2.9,2.9-7.5,5.6-8.1,8.9c-0.6,3.7,2.4,8.1,3.8,12c-5.2,8.1-11.3,6.3-17.9,1.3
			C26.1,191.1,29.8,180.3,43,177.9z"/>
		<path class="st3" d="M258.3,149.9c-2-10.4,2.9-14.5,12.8-16.6c-0.4,7.3-0.7,14.2-1.1,22.6C264.7,153.2,261.2,151.4,258.3,149.9z"
			/>
		<path class="st3" d="M219.1,131.5c-10.6,5.3-18.6-4.2-28.4-3.5c0.2-1,0.4-1.9,0.5-2.9C200.5,127.2,209.8,129.3,219.1,131.5z"/>
		<path class="st3" d="M223.8,133.1c4.6,1.1,9.3,2.2,13.9,3.3c-0.2,1-0.5,2-0.7,3c-4.6-1.1-9.1-2.1-13.7-3.2
			C223.5,135.1,223.6,134.1,223.8,133.1z"/>
	</g>
</g>
<g id="Bounds" class="st0">
	<polygon class="st4" points="143.6,2.5 168.8,32.6 257.9,30.9 380.3,2.1 436,11.7 383,48.5 308,50.6 259.3,72.9 206.4,120.8 
		252.7,130.9 284.4,121.7 273.9,164.3 189.1,133.6 108.8,148 45.9,187.9 48.5,203.3 28.9,213.8 0,207.5 22.6,177.9 74.2,149.3 
		15.6,130.9 10.4,93.5 57.3,93.3 100.2,76 123,13.6 	"/>
	<circle class="st4" cx="143.6" cy="2.5" r="4.4"/>
</g>
</svg>
