<?xml version="1.0" encoding="utf-8"?>
<!-- Generator: Adobe Illustrator 22.1.0, SVG Export Plug-In . SVG Version: 6.00 Build 0)  -->
<svg version="1.1" id="Layer_1" xmlns="http://www.w3.org/2000/svg" xmlns:xlink="http://www.w3.org/1999/xlink" x="0px" y="0px"
	 viewBox="0 0 24 24" style="enable-background:new 0 0 24 24;" xml:space="preserve">
<style type="text/css">
	.st0{fill:none;}
	.st1{fill:#262626;}
</style>
<path class="st0" d="M1,0h24v24H1V0z"/>
<path class="st1" d="M13,4V1L9,5l4,4V6c3.3,0,6,2.7,6,6c0,1-0.3,2-0.7,2.8l1.5,1.5C20.5,15,21,13.6,21,12C21,7.6,17.4,4,13,4z
	 M13,18c-3.3,0-6-2.7-6-6c0-1,0.3-2,0.7-2.8L6.2,7.7C5.5,9,5,10.4,5,12c0,4.4,3.6,8,8,8v3l4-4l-4-4V18z"/>
</svg>
