<?xml version="1.0" encoding="utf-8"?>
<!-- Generator: Adobe Illustrator 22.1.0, SVG Export Plug-In . SVG Version: 6.00 Build 0)  -->
<svg version="1.1" id="Layer_1" xmlns="http://www.w3.org/2000/svg" xmlns:xlink="http://www.w3.org/1999/xlink" x="0px" y="0px"
	 viewBox="0 0 26 24" style="enable-background:new 0 0 26 24;" xml:space="preserve">
<style type="text/css">
	.st0{fill:none;}
	.st1{fill:#262626;}
</style>
<path class="st0" d="M2,0h24v24H2V0z"/>
<path class="st1" d="M18.5,12c0-1.8-1-3.3-2.5-4v2.2l2.5,2.4C18.5,12.4,18.5,12.2,18.5,12z M21,12c0,0.9-0.2,1.8-0.5,2.6l1.5,1.5
	c0.7-1.2,1-2.6,1-4.1c0-4.3-3-7.9-7-8.8v2.1C18.9,6.1,21,8.8,21,12z M6.3,3L5,4.3L9.7,9H5v6h4l5,5v-6.7l4.3,4.3
	c-0.7,0.5-1.4,0.9-2.3,1.2v2.1c1.4-0.3,2.6-1,3.7-1.8l2,2l1.3-1.3l-9-9L6.3,3z M14,4l-2.1,2.1L14,8.2V4z"/>
</svg>
